<?xml version="1.0" encoding="UTF-8" standalone="no"?>
<!-- Created with Inkscape (http://www.inkscape.org/) -->

<svg
   version="1.1"
   id="svg1"
   width="666.66669"
   height="666.66669"
   viewBox="0 0 666.66669 666.66669"
   sodipodi:docname="7492424.svg"
   inkscape:version="1.3.2 (091e20e, 2023-11-25)"
   xmlns:inkscape="http://www.inkscape.org/namespaces/inkscape"
   xmlns:sodipodi="http://sodipodi.sourceforge.net/DTD/sodipodi-0.dtd"
   xmlns="http://www.w3.org/2000/svg"
   xmlns:svg="http://www.w3.org/2000/svg">
  <defs
     id="defs1" />
  <sodipodi:namedview
     id="namedview1"
     pagecolor="#ffffff"
     bordercolor="#000000"
     borderopacity="0.25"
     inkscape:showpageshadow="2"
     inkscape:pageopacity="0.0"
     inkscape:pagecheckerboard="0"
     inkscape:deskcolor="#d1d1d1"
     inkscape:zoom="0.49613733"
     inkscape:cx="113.87976"
     inkscape:cy="496.83824"
     inkscape:window-width="1440"
     inkscape:window-height="900"
     inkscape:window-x="0"
     inkscape:window-y="0"
     inkscape:window-maximized="0"
     inkscape:current-layer="g1">
    <inkscape:page
       x="0"
       y="0"
       inkscape:label="1"
       id="page1"
       width="666.66669"
       height="666.66669"
       margin="0"
       bleed="0" />
  </sodipodi:namedview>
  <g
     id="g1"
     inkscape:groupmode="layer"
     inkscape:label="1">
    <g
       id="group-R5"
       transform="translate(172.11926,-12.421596)"
       style="fill:#7bc100;fill-opacity:1"
       inkscape:export-filename="../../Desktop/slv_travels/slv_h.svg"
       inkscape:export-xdpi="300"
       inkscape:export-ydpi="300" />
    <path
       id="path6"
       d="m 429.3705,342.84526 c -7.236,0 -30.89733,1.72667 -30.89733,-5.76533 0,-7.49334 23.66133,-21.388 30.89733,-21.388 7.24667,0 13.11467,6.08666 13.11467,13.584 0,7.49866 -5.868,13.56933 -13.11467,13.56933 z m 6.49867,26.66933 c -0.3,0.83467 -0.756,1.668 -1.38134,2.512 -0.616,0.84 -1.412,1.68267 -2.45466,2.49333 -2.04667,1.60534 -4.952,3.108 -9.064,4.37867 l -14.816,-0.024 h -2.49733 -2.49734 -11.408 l 16.864,-19.35066 h 25.28133 c 0,-0.004 3.812,4.77733 1.97334,9.99066 z m -62.984,-13.72933 h -79.1 c -8.244,0 -14.93733,-10.16533 -14.93733,-22.70267 h 54.48266 0.009 54.48266 c 0,12.54267 -6.692,22.70267 -14.93733,22.70267 z m -3.19067,23.09466 h -72.71733 c -7.58,0 -13.73467,-6.14933 -13.73467,-13.72933 h 50.088 0.009 50.08933 c 0,7.584 -6.15467,13.72933 -13.73467,13.72933 z m -106.18133,-0.009 h -4.99466 l -14.816,0.024 c -4.11334,-1.276 -7.01334,-2.77467 -9.06534,-4.38 -1.03733,-0.80933 -1.832,-1.65333 -2.45333,-2.492 -0.62533,-0.844 -1.08133,-1.67867 -1.37733,-2.51333 -1.84267,-5.208 1.964,-9.99467 1.964,-9.99467 h 25.28666 l 16.85867,19.35067 h -11.40267 z m -39.32666,-49.59466 c 0,-7.49734 5.868,-13.584 13.11333,-13.584 7.24133,0 30.90267,13.88933 30.90267,21.388 0,7.49733 -23.66134,5.76533 -30.90267,5.76533 -7.24533,0 -13.11333,-6.06667 -13.11333,-13.56933 z m 56.35466,-60.108 c 3.02133,-2.51734 8.30267,-4.428 10.936,-4.428 h 41.85333 0.009 41.85466 c 2.63334,0 7.91467,1.91066 10.936,4.428 l 28.172,27.304 h -80.96266 -0.009 -80.95733 z m 156.88,32.73066 c -0.16,-0.184 -0.296,-0.36266 -0.484,-0.54266 l -8.328,-8.036 c 6.90666,-1.56667 14.34133,-7.352 14.34133,-13.288 0,-6.916 -9.59333,-9.37067 -17.78933,-9.37067 -8.56,0 -9.55334,5.868 -9.66,10.01467 l -21.48533,-20.71334 c -4.364,-4.32133 -12.63867,-7.72 -18.82667,-7.72 h -41.84933 -0.009 -41.85333 c -6.184,0 -14.45733,3.39867 -18.82666,7.72 l -21.48,20.71334 c -0.112,-4.14667 -1.10534,-10.01467 -9.66,-10.01467 -8.20134,0 -17.79467,2.45467 -17.79467,9.37067 0,5.936 7.44,11.72133 14.34533,13.288 l -8.32666,8.036 c -0.18934,0.18 -0.32,0.35866 -0.48534,0.54266 -8.908,7.62 -14.728,21.73734 -14.728,31.98934 v 30.452 c 0,7.39599 2.91467,14.10266 7.624,19.10399 v 11.804 c 0,6.90534 5.78,12.536 12.89067,12.536 h 15.58667 c 7.10933,0 12.88533,-5.62 12.88533,-12.536 v -3.02133 h 69.82266 0.009 69.81866 v 3.02133 c 0,6.916 5.776,12.536 12.89067,12.536 h 15.58133 c 7.11467,0 12.89067,-5.63066 12.89067,-12.536 v -11.804 c 4.70933,-5.00133 7.624,-11.708 7.624,-19.10399 v -30.452 c 0.005,-10.252 -5.81467,-24.36934 -14.724,-31.98934"
       style="fill:#7bc100;fill-opacity:1;fill-rule:nonzero;stroke:none;stroke-width:0.133333"
       inkscape:export-filename="../../Desktop/slv_travels/slv_v.png"
       inkscape:export-xdpi="300"
       inkscape:export-ydpi="300" />
    <text
       xml:space="preserve"
       style="font-style:normal;font-variant:normal;font-weight:bold;font-stretch:normal;font-size:76.4067px;font-family:Bastion;-inkscape-font-specification:'Bastion Bold';fill:#2d92a9;fill-opacity:1;stroke:#ffffff;stroke-width:1.19385"
       x="263.87964"
       y="231.68188"
       id="text6"><tspan
         sodipodi:role="line"
         id="tspan6"
         x="263.87964"
         y="231.68188"
         style="font-style:normal;font-variant:normal;font-weight:bold;font-stretch:normal;font-family:Bastion;-inkscape-font-specification:'Bastion Bold';fill:#2d92a9;fill-opacity:1;stroke-width:1.19385">SLV</tspan></text>
    <text
       xml:space="preserve"
       style="font-style:normal;font-variant:normal;font-weight:bold;font-stretch:normal;font-size:61.8328px;font-family:Bastion;-inkscape-font-specification:'Bastion Bold';fill:#2d92a9;fill-opacity:1;stroke:#ffffff;stroke-width:1.4492"
       x="221.72513"
       y="477.98056"
       id="text7"><tspan
         sodipodi:role="line"
         id="tspan7"
         x="221.72513"
         y="477.98056"
         style="font-size:61.8328px;fill:#2d92a9;fill-opacity:1;stroke-width:1.4492">Travels</tspan></text>
    <text
       xml:space="preserve"
       style="font-style:normal;font-variant:normal;font-weight:bold;font-stretch:normal;font-size:64px;font-family:Bastion;-inkscape-font-specification:'Bastion Bold';fill:#2d92a9;fill-opacity:1;stroke:#ffffff"
       x="314.05798"
       y="678.26776"
       id="text8"><tspan
         sodipodi:role="line"
         id="tspan8"
         x="314.05798"
         y="678.26776" /></text>
  </g>
</svg>
